<svg version="1.1" id="Layer_1" xmlns="http://www.w3.org/2000/svg" xmlns:xlink="http://www.w3.org/1999/xlink" x="0px" y="0px"
	 width="100%" viewBox="0 0 1024 1024" enable-background="new 0 0 1024 1024" xml:space="preserve">
<path fill="#227733" opacity="1.000000" stroke="none" 
	d="
M585.225403,620.268799 
	C601.392700,592.246033 617.400146,564.555725 633.354919,536.835144 
	C652.883972,502.904358 672.349304,468.936951 691.883240,435.008942 
	C698.865051,422.882263 706.031250,410.861389 712.968445,398.709503 
	C714.734619,395.615753 716.532349,395.516388 719.420471,397.162262 
	C762.696594,421.823700 806.019348,446.403198 849.317261,471.026367 
	C855.523071,474.555542 855.588623,474.670990 852.051331,480.873901 
	C832.740967,514.735779 813.327759,548.539001 794.044128,582.416016 
	C761.906494,638.874512 729.835510,695.370972 697.751038,751.859741 
	C694.460876,757.652405 690.981873,763.363770 688.114929,769.363525 
	C685.324585,775.203064 681.015381,779.028687 675.584167,782.404663 
	C631.296875,809.933228 585.747925,835.366516 541.638916,863.185913 
	C540.230896,864.073853 538.830750,864.994751 537.344360,865.734558 
	C530.471802,869.155151 524.600586,865.834534 524.812683,858.084839 
	C525.126587,846.618042 526.050171,835.163940 526.880981,823.716553 
	C527.698975,812.446716 528.734436,801.192627 529.657227,789.930237 
	C531.286438,770.046753 533.077209,750.174194 534.449646,730.272949 
	C535.124573,720.487305 535.605347,710.693848 536.626221,700.931030 
	C537.014099,697.221924 538.305359,694.191528 541.282532,691.930481 
	C544.933899,689.157471 547.550598,685.575012 549.821045,681.618958 
	C561.512695,661.247253 573.292908,640.926392 585.225403,620.268799 
M609.408386,721.382202 
	C606.946167,721.749878 604.471191,722.048401 602.023865,722.497437 
	C591.938843,724.347778 591.918396,724.376099 587.545410,715.501099 
	C585.524841,711.400085 583.068726,707.685608 579.059326,705.262756 
	C570.193787,699.905334 558.258972,704.499878 557.416016,713.732971 
	C555.950378,729.784912 554.603149,745.849426 553.421021,761.924438 
	C553.048523,766.989868 553.362854,772.105835 553.362854,777.250366 
	C555.094788,778.089172 556.966003,777.739441 558.743347,777.629761 
	C576.253967,776.549133 588.538696,784.132019 595.808960,799.953247 
	C597.150635,802.872925 598.939331,803.028931 601.367432,801.613281 
	C620.074829,790.707153 638.779907,779.797058 657.482910,768.883423 
	C659.704834,767.586914 660.756897,765.720947 660.491089,763.071350 
	C659.543152,753.621460 653.322266,747.610962 643.770508,747.108643 
	C641.614746,746.995300 639.428894,747.021729 637.282959,747.239868 
	C632.400574,747.736145 629.757446,745.452881 628.764465,740.833496 
	C628.415161,739.208435 628.069580,737.558777 627.479248,736.013184 
	C624.419067,728.000977 619.317261,722.337219 609.408386,721.382202 
M758.221008,521.657776 
	C729.473083,571.960144 700.708923,622.253235 671.988464,672.571228 
	C664.643738,685.439148 657.446838,698.391296 650.161011,711.292847 
	C648.060547,715.012451 647.270569,718.729919 649.853455,722.557800 
	C654.596130,729.586548 662.421204,729.016785 667.080872,720.969177 
	C675.339417,706.705994 683.294739,692.267456 691.420288,677.926819 
	C717.685303,631.571960 743.942261,585.212402 770.260864,538.887939 
	C780.623352,520.648621 791.130371,502.491455 801.595947,484.310852 
	C803.510132,480.985596 804.638306,477.637177 802.649170,473.939575 
	C800.595093,470.121307 797.379700,467.897095 793.097229,467.623535 
	C788.961853,467.359344 786.901367,470.398865 785.154602,473.503723 
	C776.256287,489.319946 767.412354,505.166870 758.221008,521.657776 
M721.482117,466.924133 
	C688.656677,524.533630 655.817566,582.135376 623.015686,639.758301 
	C614.939087,653.946411 606.918152,668.167236 599.008301,682.448730 
	C596.223999,687.476074 597.644348,692.413513 602.290588,695.429565 
	C606.500305,698.162048 612.121338,696.840698 615.385498,692.244507 
	C616.733398,690.346436 617.942322,688.339050 619.090027,686.311035 
	C640.343506,648.758179 661.536194,611.170837 682.828369,573.639954 
	C705.190063,534.223938 727.648010,494.862518 750.052002,455.470490 
	C753.902344,448.700562 753.052246,443.744812 747.543030,440.379303 
	C742.192688,437.110901 737.198059,438.940063 733.297974,445.776031 
	C729.417969,452.576904 725.676636,459.456940 721.482117,466.924133 
z"/>
<path fill="#227733" opacity="1.000000" stroke="none" 
	d="
M218.657745,543.999878 
	C218.662552,430.176575 218.765015,316.853027 218.514511,203.530273 
	C218.490768,192.793121 222.292786,184.429581 229.418060,177.182663 
	C241.997955,164.388031 257.585968,160.145279 275.103333,161.707428 
	C277.428772,161.914810 278.304901,163.115433 278.289642,165.284439 
	C278.276703,167.117249 278.321289,168.950378 278.321289,170.783356 
	C278.323425,348.767609 278.321808,526.751831 278.340057,704.736084 
	C278.340363,707.724121 278.162201,710.802673 278.786377,713.683167 
	C280.622314,722.155334 286.441010,726.687317 295.211914,726.691711 
	C357.539673,726.722839 419.867462,726.714905 482.195221,726.718323 
	C488.944458,726.718689 488.938507,726.715393 488.944885,733.258911 
	C488.960632,749.423828 488.883759,765.589905 489.068878,781.752930 
	C489.116943,785.948792 488.009583,787.471497 483.451294,787.459229 
	C410.958832,787.264832 338.461426,786.791443 265.975464,787.475769 
	C241.122849,787.710388 218.262955,761.186035 218.451843,739.978882 
	C219.032166,674.823792 218.659958,609.660217 218.657745,543.999878 
z"/>
<path fill="#227733" opacity="1.000000" stroke="none" 
	d="
M485.999878,285.372070 
	C439.346466,285.367889 393.193054,285.391602 347.039673,285.345245 
	C329.002869,285.327118 314.709259,271.034943 314.685364,253.069031 
	C314.647919,224.910492 314.660980,196.751892 314.678406,168.593307 
	C314.682220,162.385529 315.326660,161.713562 321.584534,161.713608 
	C430.386566,161.714233 539.188660,161.681091 647.990540,161.797821 
	C670.338623,161.821793 688.455444,175.875809 693.618713,196.605789 
	C694.786743,201.295502 695.127747,206.123810 695.129272,210.963715 
	C695.143738,255.117508 695.104614,299.271454 695.230957,343.424927 
	C695.252502,350.954773 692.797607,357.388031 688.512329,363.378693 
	C676.882874,379.636139 665.297852,395.925507 653.739929,412.233887 
	C648.637207,419.433899 643.658508,426.721649 638.583374,433.941345 
	C637.765381,435.105072 637.284363,436.679749 635.268311,437.038879 
	C634.191956,435.058197 634.677795,432.883148 634.676270,430.827362 
	C634.646057,389.505981 634.658020,348.184540 634.651672,306.863129 
	C634.649353,291.810638 628.207397,285.384552 612.963379,285.374817 
	C570.808899,285.347992 528.654419,285.369537 485.999878,285.372070 
M625.209473,251.995850 
	C629.053162,250.687775 632.542786,249.000534 634.722168,245.227295 
	C640.471863,235.272552 633.213379,222.788193 619.943665,222.832825 
	C547.326477,223.077072 474.708038,222.958496 402.090088,223.010971 
	C400.232849,223.012314 398.013092,222.430008 396.794434,224.568359 
	C396.675629,225.648483 397.197052,226.408081 397.906403,226.766388 
	C402.910583,229.294083 402.611389,231.297852 397.884155,234.155411 
	C394.963745,235.920776 395.102539,240.036484 393.903748,243.090942 
	C392.978363,245.448761 395.727844,245.852646 396.889252,247.077774 
	C398.367035,248.636673 398.367889,249.938995 396.472626,251.027466 
	C394.828552,251.168900 394.427826,249.354080 393.066101,249.077789 
	C392.090912,248.879913 391.148346,248.381775 390.247101,249.158340 
	C389.557556,249.752487 389.311676,250.568283 389.638092,251.411423 
	C390.066956,252.519150 391.101410,252.648758 392.123627,252.690872 
	C392.788635,252.718277 393.455383,252.707428 394.121338,252.707474 
	C468.070923,252.712097 542.020508,252.721130 615.970093,252.701202 
	C618.789368,252.700439 621.608521,252.419861 625.209473,251.995850 
M389.414246,223.205505 
	C383.610413,222.829224 377.781250,222.550980 372.017853,223.368530 
	C365.081390,224.352493 360.344604,230.185745 360.285522,237.297180 
	C360.226959,244.345978 363.953156,249.359741 370.127014,250.559814 
	C372.509918,244.274994 374.569855,238.162140 369.466888,231.950287 
	C367.696106,229.794739 369.160767,227.348801 371.964813,226.729462 
	C374.932739,226.073929 377.745514,226.327911 378.157745,230.312592 
	C378.198090,230.702362 377.768860,231.140717 377.623535,231.426697 
	C376.119934,232.176697 374.987152,229.282669 373.508453,231.345535 
	C373.591339,233.717621 375.354004,233.624374 377.028778,233.660233 
	C379.017792,233.702789 381.007141,233.734863 382.995758,233.791931 
	C388.345337,233.945404 391.744141,229.002182 389.414246,223.205505 
M381.544189,248.754196 
	C381.347107,250.679810 382.073090,252.114532 384.056091,252.355606 
	C385.602997,252.543671 385.914856,251.187241 385.945984,249.987640 
	C385.983521,248.540421 386.452393,246.741394 384.853668,245.930923 
	C382.841309,244.910767 382.386932,246.781128 381.544189,248.754196 
z"/>
<path fill="#227733" opacity="1.000000" stroke="none" 
	d="
M385.598022,573.402771 
	C400.807251,584.884888 417.246979,592.725830 436.733856,596.605042 
	C436.733856,589.448059 436.798889,583.170227 436.713348,576.894531 
	C436.644470,571.840942 438.135590,567.569763 442.862305,565.235107 
	C447.796814,562.797852 452.906708,562.842590 457.672577,565.767029 
	C461.287872,567.985352 463.372131,571.257751 463.337036,575.694824 
	C463.293518,581.194031 463.413361,586.695068 463.321411,592.193054 
	C463.277283,594.832092 464.199005,596.277222 466.979797,596.398376 
	C480.102234,596.969971 494.933533,585.841064 497.190460,573.198242 
	C499.217834,561.841431 495.296051,552.498535 486.065765,545.591797 
	C478.637543,540.033508 470.084808,536.742676 461.309967,533.954651 
	C444.814758,528.713562 428.029602,524.347656 411.886261,518.044861 
	C396.580475,512.069153 382.181335,504.604675 370.537628,492.548065 
	C345.525146,466.648590 346.115784,424.876862 371.420502,399.196960 
	C386.458862,383.935577 404.751953,375.760956 425.295502,371.861389 
	C429.554779,371.052856 430.804413,369.242645 430.704407,365.223145 
	C430.501312,357.061981 430.777618,348.888824 430.573181,340.727722 
	C430.453949,335.966858 432.944611,333.877411 437.155640,333.771881 
	C445.316071,333.567383 453.491364,333.530396 461.648987,333.788666 
	C467.289337,333.967224 469.297302,336.365417 469.328766,341.997925 
	C469.373474,349.997162 469.432129,357.998047 469.310699,365.995605 
	C469.265106,368.998016 470.135651,370.334503 473.385742,370.869873 
	C497.663788,374.869019 519.729187,384.023651 538.898804,399.698517 
	C545.368347,404.988647 545.402710,404.996948 540.373596,411.862061 
	C534.269409,420.194763 527.999695,428.409241 522.042419,436.845001 
	C519.702332,440.158691 517.690918,440.718506 514.366882,438.165131 
	C503.737732,430.000366 492.308319,423.198181 479.460724,419.080872 
	C475.665894,417.864716 471.716309,417.137817 467.899384,415.982666 
	C464.392853,414.921417 463.324707,416.473938 463.333649,419.655945 
	C463.349091,425.155396 463.400116,430.657318 463.266144,436.154053 
	C463.055695,444.787262 458.740387,448.821625 449.969116,448.785828 
	C441.814636,448.752502 436.880188,443.957825 436.717926,435.835480 
	C436.594849,429.675964 436.551575,423.514923 436.443512,417.355072 
	C436.438446,417.065613 436.148438,416.781128 435.986694,416.496765 
	C425.352966,415.510406 411.650330,424.214203 407.920044,434.324097 
	C403.512390,446.269775 407.508575,459.160004 418.108002,466.542786 
	C428.794464,473.986115 441.113770,477.729553 453.329315,481.647278 
	C469.967712,486.983429 486.924500,491.371826 503.033081,498.281403 
	C516.394775,504.012756 528.229553,511.881683 537.418457,523.340454 
	C561.109741,552.884094 555.087891,596.624023 524.005554,621.205566 
	C509.613739,632.587341 492.918884,638.373962 475.077850,641.142334 
	C470.644318,641.830322 469.127808,643.596252 469.271454,647.940002 
	C469.524689,655.598022 469.170776,663.276184 469.431061,670.933716 
	C469.586456,675.505554 467.570374,677.841125 463.310486,678.472046 
	C454.535583,679.771790 445.732727,679.652527 436.947693,678.594116 
	C432.422424,678.048889 430.363190,675.522827 430.515442,670.776733 
	C430.766479,662.951416 430.519836,655.111206 430.686676,647.281616 
	C430.763458,643.678406 429.498779,641.874146 425.784729,641.157043 
	C403.764648,636.905090 383.198181,629.116455 365.223816,615.355408 
	C360.862183,612.016113 356.712128,608.400269 352.468292,604.907288 
	C349.842377,602.746033 349.418152,600.538818 351.721771,597.676514 
	C359.346588,588.202209 366.856964,578.634644 374.316162,569.029053 
	C376.209442,566.591003 377.883453,566.495117 380.035370,568.594788 
	C381.701691,570.220642 383.549744,571.660278 385.598022,573.402771 
z"/>
<path fill="#227733" opacity="1.000000" stroke="none" 
	d="
M758.233887,381.842224 
	C750.625061,377.634430 743.342407,373.597076 736.041077,369.593628 
	C733.877258,368.407166 731.663452,367.165527 733.464111,364.259705 
	C739.166260,355.057861 743.261719,344.920135 749.716797,336.168793 
	C764.869507,315.625885 790.574280,309.835449 814.343628,322.355743 
	C833.047363,332.207825 851.668579,342.338684 869.583252,353.534973 
	C890.643250,366.697083 898.673035,391.604004 889.251465,414.642853 
	C885.203369,424.541779 879.114319,433.373535 874.022461,442.728210 
	C872.476929,445.567505 870.676941,445.088348 868.282349,443.733398 
	C839.586304,427.495514 810.850830,411.327148 782.115356,395.158966 
	C774.278931,390.749756 766.408020,386.401764 758.233887,381.842224 
z"/>
</svg>